<?xml version="1.0" encoding="utf-8"?>
<!-- Generator: Adobe Illustrator 17.1.0, SVG Export Plug-In . SVG Version: 6.00 Build 0)  -->
<!DOCTYPE svg PUBLIC "-//W3C//DTD SVG 1.1//EN" "http://www.w3.org/Graphics/SVG/1.1/DTD/svg11.dtd">
<svg version="1.1" id="Layer_1" xmlns="http://www.w3.org/2000/svg" xmlns:xlink="http://www.w3.org/1999/xlink" x="0px" y="0px"
	 viewBox="0 0 550 550" enable-background="new 0 0 550 550" xml:space="preserve">
<g>
	<defs>
		<rect id="SVGID_1_" width="550" height="550"/>
	</defs>
	<clipPath id="SVGID_2_">
		<use xlink:href="#SVGID_1_"  overflow="visible"/>
	</clipPath>
	<path clip-path="url(#SVGID_2_)" fill="#2DA02D" d="M414.7,505c-1.1-1.9-3.1-3-5.1-3c-1,0-2,0.3-3,0.8l-0.4,0.2
		c-2.8,1.6-3.8,5.3-2.1,8.1c1.1,1.8,3,3,5.1,3c1,0,2.1-0.3,3-0.8l0.4-0.3C415.4,511.5,416.3,507.9,414.7,505"/>
	<path clip-path="url(#SVGID_2_)" fill="#2DA02D" d="M544.8,328.2c12.9-65.2,1.6-132.9-31.7-190.6C476.4,74,417.1,28.5,346.2,9.5
		C322.5,3.1,298.5,0,274.6,0c-47.6,0-94.7,12.5-137,37C74,73.7,28.5,133,9.5,203.9c-19,70.9-9.3,145,27.5,208.6
		c32.9,57,85.3,100.4,147.4,122.1c29.3,10.2,59.9,15.4,90.9,15.4c33.8,0,66.8-6.1,98.2-18.2c1.5-0.6,2.6-1.7,3.3-3.1
		c0.6-1.4,0.7-3.1,0.1-4.5c-0.6-1.5-1.7-2.7-3.1-3.3c-1.4-0.6-3.1-0.7-4.5-0.1c-31,11.9-63.2,17.8-95.1,17.8
		c-55.6,0-110.4-17.8-156.4-52.4l-2.5-1.9l10.9-57.1l7.5-2.4c15.2-4.9,23.6-21.4,18.6-36.6l-3.5-10.7c-1.1-3.5-1.1-7.2,0-10.6
		c2.6-7.9,1.7-16.6-2.5-23.7c-4.2-7.2-11.3-12.2-19.5-13.8l-25.8-5l-48.6-36.9c-1.5-1.2-3.6-1.5-5.4-0.9l-34,11.1l-0.4-6.5
		c-0.6-10.1-0.6-20.3,0-30.4l0.6-10.6l7.8,7.3c1.1,1,1.9,1.8,2.5,2.4l0.4,0.4l0.3,0.5c0.3,0.5,0.7,1,1.1,1.3c1.2,1.1,2,1.7,5.3,1.7
		c3.5,0,8.9-0.7,18.9-2.2c9.2-1.4,18.3-2.9,18.4-2.9c2-0.3,3.7-1.7,4.5-3.5c0.8-1.9,0.6-4-0.6-5.7l-16.2-23.7L78.6,209
		c0.7-0.5,1.3-1.1,1.7-1.9l30.1-52.5l12.4-13.3c10.9-11.7,14.1-28.9,7.9-43.7c-3.6-8.6-9.9-16.1-17.9-21.1l-6-3.8l5.6-4.4
		c9.9-7.8,20.4-14.9,31.2-21.1C182.6,24.7,227,12.5,272,12.1l10.5-0.1l-27,33.8l-73.8,25.9c-1.6,0.6-2.9,1.8-3.5,3.3L158,124
		c-0.8,1.9-0.5,4,0.7,5.7l32.1,45l-3.3,3c-3.9,3.6-8,9.2-12.6,15.6c-2.2,3.2-4.3,6.2-5.9,8c-1.2,1.4-2.5,2.8-3.7,4.2
		c-6.1,6.9-12.4,14-16.8,23.2c-9.5,20.1-7.6,43.4,4.9,60.8c12.1,16.8,32,25.3,53.3,22.8c3.5-0.4,6.8-1.2,10.1-2
		c9.3-2.3,14.8-3.4,20,1.5c3.1,2.9,3.2,5,3.2,10c0,2.8,0,6,0.8,9.6c1.3,5.5,4.9,9.4,8.1,12.9c2.1,2.3,4,4.4,4.9,6.5
		c4.1,9.9,2.1,16-1.2,26.1c-0.3,0.9-0.6,1.7-0.8,2.6c-4.4,13.5,1.8,27.1,7.8,40.3c2,4.5,3.9,8.7,5.2,12.6
		c9.3,27.5,15.8,33.5,20.5,35.6c2.3,1,4.8,1.6,7.5,1.6h0c14.2,0,29.7-14.4,35.9-22.1c4-4.9,5-9.8,5.7-13.7c0.5-2.5,0.9-4.6,2-6.4
		c1.2-2.1,2.6-3.6,4.2-5.4c2.8-3.1,5.9-6.6,7.9-13.1c2.1-6.7,4-8.7,8.5-13.5c0.8-0.8,1.5-1.6,2.4-2.6c12.6-13.7,9.6-23.5,5.7-35.9
		c-4.3-13.9,3.9-22.9,18-36c5.9-5.5,12.1-11.2,16.7-17.9c1.8-2.5,7.1-10.3,4.2-17.1c-2.7-6.2-9.2-7.6-18.3-9
		c-6.2-0.9-9.4-1.6-11.5-3c-8-5.2-12.4-15.1-16.7-24.7c-0.8-1.8-1.6-3.5-2.3-5.2c-1.5-3.2-2.9-7-4.5-10.9
		c-3.8-9.9-8.1-21.1-15.1-28.5c-5.9-6.3-18.2-9.6-29-12.5c-4-1.1-7.7-2.1-10.3-3.1c-1.1-0.4-2.3-0.5-3.4-0.2
		c-4.8,1.1-7.7,2.3-9.7,3.9c-0.3,0.2-1.6,1.4-2.4,3.2l-2,4.9l-4.8-2.3c-4.3-2.1-9.8-5.8-13.5-8.2l-3.1-2.1l0.8-3.5
		c0.8-3.1,0.1-5.6-0.6-7.2c-4.8-10.2-23.4-8.9-25.4-8.7c-2.4,0.2-5.3,0.3-8.4,0.4c-4.6,0.2-9.8,0.3-14.9,0.9l-8,0.9l3-8.3
		c4.7-13,17.1-21.8,31-21.8h6.2c3.3,0,5.9-2.7,5.9-5.9c0-3.3-2.7-5.9-5.9-5.9h-6.2c-15.4,0-30,8.1-38.1,21.2l-4,6.4l-22.3-31.2
		l18-43.5l72.9-25.6c1.1-0.4,2-1,2.7-1.9L296.9,13l2.7,0.3c41,3.9,81,17.5,115.8,39.4c35.9,22.6,66.2,54,87.5,90.9
		c11.5,20,20.4,41.5,26.3,63.8l0.8,3l-6.9,6.2c-5,4.5-7.9,10.9-8.1,17.6c0,0.1,0,0.3,0,0.4l-1.1,25.1l-16.1-44.4
		c-0.9-2.5-2.3-4.9-4-6.9l-13.5-15.8c-4.3-5-10.5-7.9-17.1-7.9h-16.5c-4,0-7.7,2.2-9.6,5.7c-1.9,3.5-1.7,7.8,0.5,11.1l4.1,6.2
		l-3.4,2.9c-11,9.5-24.1,17.2-37.6,22.3l-4.1,1.6l-25.2-48.3v-10.9c0-1.6-0.7-3.2-1.8-4.3l-20.4-19.4c-0.6-0.6-1.3-1-2.1-1.3
		l-18.3-6.4c-1.5-0.5-3.1-0.4-4.5,0.2c-1.4,0.7-2.5,1.9-3,3.4c-1.1,3.1,0.5,6.5,3.6,7.6l17.1,6l17.6,16.8v9.8c0,1,0.2,1.9,0.7,2.7
		l28.3,54.2c1.4,2.6,4.5,3.9,7.3,2.8l8.2-3c18.5-6.8,35.6-17.8,49.5-31.7c2-2,2.3-5.1,0.7-7.5l-5.8-8.6h14.6c3.1,0,6,1.4,8,3.7
		l13.5,15.8c0.8,1,1.5,2.1,1.9,3.3l14.9,40.9c0.7,1.9,2.3,3.3,4.3,3.8c1.9,0.4,4.1-0.2,5.5-1.6l7.1-7.1c3.8-3.8,6.4-8.6,7.7-14
		l6.4-27.2l3.5,27.7c5.5,44.5-0.3,90-17,131.7c-17.1,42.7-45.1,80.2-81,108.3c-1.2,1-2,2.4-2.2,4c-0.2,1.6,0.2,3.1,1.2,4.4
		c1,1.2,2.4,2,4,2.2c1.6,0.2,3.1-0.2,4.4-1.2C496.6,450.7,532,392.8,544.8,328.2 M47.7,298.7l47.2,35.9c0.7,0.5,1.6,0.9,2.5,1.1
		l27.2,5.3c4.9,1,9,3.9,11.5,8.2c2.5,4.3,3.1,9.3,1.5,14c-1.9,5.9-1.9,12.1,0,18l3.5,10.7c2.9,9-2,18.7-11,21.6L119,417
		c-2.1,0.7-3.6,2.4-4,4.5L104.6,476l-6.6-6c-20-18.3-37.1-39.6-50.8-63.3c-16.7-28.9-27.6-60.1-32.4-92.9l-0.6-4.2L47.7,298.7z
		 M119.8,102.2c4.3,10.5,2.1,22.7-5.7,31.1v0L101.2,147c-0.3,0.3-0.6,0.7-0.8,1.1l-29.8,52l-26.9,19.2c-2.6,1.9-3.3,5.5-1.5,8.2
		l14.2,20.8l-7.9,1.2c-6,0.9-10.9,1.6-14.2,1.9l-2.3,0.3l-1.7-1.6c-0.6-0.6-1.3-1.2-1.9-1.8c-2.6-2.4-6.2-5.6-11.5-10.3l-2.1-1.8
		l0.4-2.7C24.6,176.5,52.5,123.6,94,84.2l2.1-2l2.8,0.9C108.4,86.1,116,93,119.8,102.2 M197,185.3l0.2-0.1
		c5.5-3.1,15.4-3.7,26.7-4.1c3.2-0.1,6.3-0.2,9-0.4c1.6-0.1,3.5-0.1,5.5,0l6.7,0.5l-2.4,6.3c-0.4,1-0.5,2-0.3,3.1
		c0.3,1.8,1.4,3.4,3.1,4.3c2.3,1.2,5.2,3.2,8.3,5.3c8,5.4,17.1,11.4,24.9,11.9c6,0.4,9.2-2.9,11-4.7l0.1-0.1
		c0.2-0.2,0.3-0.3,0.5-0.5l0.2-0.2c0.5-0.4,1.1-1,1.7-2l1.9-3.6l3.9,1.1c1.7,0.5,3.4,1,5.3,1.4l0.2,0c12.9,3.5,20.5,6,23.5,9.2
		c5.4,5.7,9.3,15.8,12.7,24.6c1.6,4.2,3.1,8.1,4.8,11.7c0.7,1.5,1.4,3.1,2.1,4.7l0.1,0.3c5,11.2,10.2,22.7,21.1,29.8
		c4.6,3,10.5,3.9,16.2,4.8c0.7,0.1,1.6,0.2,2.4,0.4l7.9,1.3l-4.7,6.5c-3.8,5.3-9,10.2-14.5,15.3c-13.2,12.3-28.1,26.2-21.3,48.2
		c3.8,12.4,4.5,16-3.2,24.4c-0.8,0.9-1.6,1.7-2.3,2.5c-5,5.3-8.2,8.8-11.2,18.1c-1.3,4-3,6-5.5,8.8c-1.7,2-3.7,4.2-5.5,7.3
		c-2.1,3.5-2.8,7-3.4,10.1c-0.7,3.4-1.2,6-3.3,8.6c-2.9,3.6-8.6,9.2-15,13.3c-5.9,3.8-9.7,4.4-11.7,4.4c-0.2,0-0.3,0-0.5,0l-2-0.1
		l-1.4-1.5c-2.1-2.3-6.6-8.8-12.9-27.5c-1.5-4.4-3.6-9.1-5.7-13.7c-5.1-11.1-10.3-22.6-7.3-31.7c0.3-0.9,0.6-1.7,0.8-2.5
		c3.6-10.9,6.7-20.4,0.9-34.4c-1.7-4-4.4-7-7-9.9c-2.9-3.2-4.8-5.4-5.3-7.7c-0.5-2.2-0.5-4.4-0.5-6.8c0-5.4,0.1-12.2-6.9-18.7
		c-10.1-9.5-22.2-6.5-30.9-4.3c-3.1,0.8-5.9,1.5-8.6,1.8c-17.2,2-32.6-4.5-42.3-18c-10-13.9-11.5-32.7-3.9-48.8
		c3.6-7.7,8.9-13.6,14.9-20.4l0.2-0.2c1.2-1.4,2.4-2.7,3.6-4.1c2-2.3,4.3-5.5,6.6-8.9C190.5,191.9,194.2,187,197,185.3"/>
	<path clip-path="url(#SVGID_2_)" fill="#2DA02D" d="M386.7,443.1c4.4,6.3,9.3,9.5,14.5,9.5c0.7,0,1.4-0.1,2.1-0.2
		c8.9-1.5,16.3-12.3,22.4-33l12.9-43.4c0.3-1,0.3-2.2,0-3.2l0,0l-5.3-19.8c-0.6-2.4-2.6-4.1-5-4.4c-0.2,0-0.5,0-0.7,0
		c-2.2,0-4.2,1.2-5.2,3.1c-1.1,2.1-2.2,4.3-3.2,6.5c-1.9,4.2-3.9,8.4-6.2,11.1c-1.7,2-4.8,3.5-8,5c-6.1,2.9-13,6.3-15.6,14.7
		c-1.7,5.4-1.1,9.7-0.5,13.2c0.5,3.3,0.8,5.7-0.6,9.1l-0.1,0.3C384.8,419.4,379.2,432.5,386.7,443.1 M399,416.3l0.1-0.3
		c2.8-6.5,2.1-11.3,1.4-15.5c-0.4-3-0.8-5.1,0.1-7.9c1.1-3.5,4.8-5.3,9.4-7.6c1.7-0.8,3.4-1.7,5.2-2.7l10.9-6.3L414.3,416
		c-3.6,12.2-7,18.3-9.1,21.2l-3.9,5.3l-4.1-5.2c-0.3-0.3-0.5-0.7-0.8-1.1C392.7,431,396.2,422.9,399,416.3"/>
	<path clip-path="url(#SVGID_2_)" fill="#2DA02D" d="M284,140.7l0.7,0.3c0.6,0.2,1.3,0.3,2,0.3c2.5,0,4.8-1.6,5.6-4
		c0.5-1.5,0.4-3.1-0.3-4.5s-1.9-2.5-3.4-3l-0.7-0.3c-0.6-0.2-1.3-0.3-2-0.3c-2.5,0-4.8,1.5-5.6,4C279.3,136.2,280.9,139.6,284,140.7
		"/>
</g>
</svg>
